<svg width="41" height="41" viewBox="0 0 41 41" fill="none" xmlns="http://www.w3.org/2000/svg">
<path d="M34.375 39C35.9075 39 37.15 37.7575 37.15 36.225C37.15 34.6924 35.9075 33.45 34.375 33.45C32.8425 33.45 31.6 34.6924 31.6 36.225C31.6 37.7575 32.8425 39 34.375 39Z" fill="black" stroke="white" stroke-width="4" stroke-linecap="round" stroke-linejoin="round"/>
<path d="M15.875 39C17.4075 39 18.65 37.7575 18.65 36.225C18.65 34.6924 17.4075 33.45 15.875 33.45C14.3424 33.45 13.1 34.6924 13.1 36.225C13.1 37.7575 14.3424 39 15.875 39Z" fill="black" stroke="white" stroke-width="4" stroke-linecap="round" stroke-linejoin="round"/>
<path d="M7.55 5.7H39L35.3 26.05H11.25L7.55 5.7ZM7.55 5.7C7.24166 4.46666 5.7 2 2 2" stroke="white" stroke-width="4" stroke-linecap="round" stroke-linejoin="round"/>
<path d="M35.3 26.05H11.25H7.97693C4.67595 26.05 2.925 27.4953 2.925 29.75C2.925 32.0048 4.67595 33.45 7.97693 33.45H34.375" stroke="white" stroke-width="4" stroke-linecap="round" stroke-linejoin="round"/>
</svg>
